<svg width="144" height="32" viewBox="0 0 144 32" fill="none" xmlns="http://www.w3.org/2000/svg" class="Header_logo__AFjYj"><g clip-path="url(#clip0_512_21868)"><path d="M106.469 6.04313C105.766 5.36678 105.413 4.52273 105.413 3.50821C105.413 2.49369 105.763 1.69087 106.469 1.01452C107.172 0.338173 108.055 0 109.117 0C110.178 0 111.055 0.338173 111.744 1.01452C112.434 1.69087 112.778 2.52118 112.778 3.50821C112.778 4.49523 112.434 5.36678 111.744 6.04313C111.055 6.71948 110.178 7.05765 109.117 7.05765C108.055 7.05765 107.17 6.71948 106.469 6.04313ZM106.018 9.76579H112.305V31.3237H106.018V9.76854V9.76579Z" fill="#EEEFE2"></path><path d="M132.113 32C129.844 32 127.813 31.4996 126.02 30.4988C124.224 29.498 122.812 28.1399 121.779 26.4187C120.745 24.7004 120.229 22.7428 120.229 20.5433C120.229 18.3438 120.753 16.3863 121.801 14.6679C122.849 12.9495 124.269 11.5886 126.065 10.5878C127.858 9.58706 129.878 9.08667 132.116 9.08667C134.354 9.08667 136.45 9.58706 138.232 10.5878C140.011 11.5886 141.42 12.9495 142.453 14.6679C143.487 16.3863 144.003 18.3438 144.003 20.5433C144.003 22.7428 143.479 24.6646 142.431 26.3967C141.383 28.1289 139.968 29.4953 138.19 30.4961C136.408 31.4968 134.385 31.9972 132.116 31.9972L132.113 32ZM136.161 16.2543C135.128 15.1408 133.777 14.5854 132.113 14.5854C130.449 14.5854 129.141 15.1435 128.107 16.2543C127.073 17.3678 126.555 18.7975 126.555 20.5433C126.555 22.2892 127.071 23.7216 128.107 24.8324C129.141 25.9458 130.477 26.5012 132.113 26.5012C133.749 26.5012 135.128 25.9458 136.161 24.8324C137.195 23.7189 137.713 22.2892 137.713 20.5433C137.713 18.7975 137.198 17.3678 136.161 16.2543Z" fill="#EEEFE2"></path><path d="M90.1953 0.96228H96.4874V22.6796C96.4874 24.3347 96.7479 25.9816 97.2634 27.557L98.5772 31.5821L92.4169 31.5738L91.0161 27.7357C90.4727 26.2511 90.1953 24.6839 90.1953 23.1058V0.96228Z" fill="#EEEFE2"></path><path d="M29.9893 9.84277H36.934L41.7777 25.3658L50.4874 0.96228H56.9616L44.9098 31.2962H38.4356L29.9921 9.84002L29.9893 9.84277Z" fill="#EEEFE2"></path><path d="M75.1433 29.9022C73.8098 30.947 71.2969 31.6013 69.1202 31.6013C63.5257 31.6013 58.7744 27.3755 58.7744 20.8375C58.7744 14.2995 63.8366 9.20215 70.4508 9.20215C72.4483 9.20215 74.4457 9.68054 76.1798 10.5521L81.3317 9.68054V31.1229H75.1433V29.9022ZM75.0816 15.523C74.1039 15.0858 71.8516 14.3985 70.5181 14.3985C66.9658 14.3985 64.9908 17.1698 64.9908 20.3949C64.9908 23.6199 66.8986 26.3418 70.2744 26.3418C71.605 26.3418 74.0143 25.7616 75.0816 25.11V15.523Z" fill="#EEEFE2"></path><path d="M16.3689 29.9023C15.0354 30.947 12.5225 31.6014 10.3457 31.6014C4.75125 31.6014 0 27.3756 0 20.8403C0 14.3051 5.06221 9.20496 11.6764 9.20496C13.6739 9.20496 15.6713 9.68335 17.4054 10.5549L22.5573 9.68335V31.123H16.3689V29.9023ZM16.3072 15.523C15.3295 15.0859 13.0772 14.3985 11.7437 14.3985C8.19143 14.3985 6.21641 17.1699 6.21641 20.3949C6.21641 23.6199 8.1242 26.3418 11.4999 26.3418C12.8306 26.3418 15.2399 25.7617 16.3072 25.1101V15.523Z" fill="#EEEFE2"></path></g><defs><clipPath id="clip0_512_21868"><rect width="144" height="32" fill="white"></rect></clipPath></defs></svg>